<svg width="180" height="31" viewBox="0 0 180 31" fill="none" xmlns="http://www.w3.org/2000/svg">
<path d="M32.2298 21.6672C32.2298 23.2924 32.0521 24.6666 31.6968 25.7899C31.3415 26.9132 30.7737 27.8204 29.9897 28.5152C29.2057 29.21 28.1784 29.7119 26.9077 30.0207C25.637 30.3295 24.0999 30.4878 22.2963 30.4878H0.753122C0.811055 29.4841 0.876711 28.4882 0.953955 27.4961C1.02734 26.5079 1.09299 25.5081 1.15479 24.5045H21.9023C22.7018 24.5045 23.3738 24.4543 23.9184 24.3501C24.4668 24.2458 24.8955 24.0605 25.2045 23.798C25.5135 23.5317 25.7375 23.1843 25.8688 22.7558C26.0001 22.3273 26.0696 21.7869 26.0696 21.1384C26.0696 19.8684 25.7877 18.9883 25.2277 18.5019C24.6676 18.0155 23.6017 17.7723 22.0375 17.7723H9.66314C7.82861 17.7723 6.29919 17.6102 5.07488 17.2859C3.84672 16.9617 2.858 16.4598 2.10488 15.7804C1.35176 15.101 0.811054 14.2441 0.486633 13.2096C0.162211 12.1712 0 10.9591 0 9.5694V8.55031C0 7.04484 0.162211 5.74396 0.486633 4.65152C0.811054 3.55909 1.35948 2.67511 2.12805 1.99572C2.89662 1.31632 3.90851 0.814499 5.16371 0.490244C6.41892 0.162128 7.97923 0 9.84079 0H31.2101C31.0904 1.03453 30.9746 2.0459 30.8548 3.03411C30.7351 4.02231 30.6038 5.03754 30.457 6.06821H9.84079C8.36159 6.06821 7.36515 6.31912 6.84762 6.82095C6.33009 7.32277 6.07132 8.17973 6.07132 9.39183C6.07132 10.6039 6.33009 11.4686 6.84762 11.9859C7.36515 12.5031 8.36159 12.7618 9.84079 12.7618H22.0336C23.9261 12.7618 25.5212 12.9162 26.8227 13.2289C28.1243 13.5377 29.1709 14.0202 29.9704 14.6687C30.7699 15.3172 31.3453 16.1394 31.7006 17.1276C32.056 18.1159 32.2336 19.2778 32.2336 20.6057V21.6672H32.2298ZM47.215 30.5495V6.09137H36.0881V0.0656232H64.3282V6.09137H53.2013V30.5534H47.215V30.5495ZM82.1521 30.6383V19.4283L67.7887 0.154407H74.7058L85.3461 14.4217L95.8937 0.154407H102.853L88.1346 19.4283V30.6383H82.1521ZM132.071 30.4878L121.519 20.5169H111.898V30.4878H105.87V0H130.784C132.41 0 133.778 0.169848 134.886 0.509545C135.995 0.849241 136.887 1.38967 137.57 2.12696C138.25 2.86426 138.744 3.84089 139.053 5.05298C139.362 6.26508 139.521 7.72809 139.521 9.43816V11.2988C139.521 13.1594 139.335 14.6803 138.965 15.8615C138.594 17.0427 137.995 17.973 137.169 18.6524C136.342 19.3318 135.276 19.7989 133.975 20.0498C132.673 20.3007 131.078 20.4281 129.186 20.4281L140.49 30.4878H132.071ZM133.581 10.4572C133.581 8.97879 133.411 7.87864 133.071 7.15679C132.731 6.43493 131.912 6.07207 130.611 6.07207H111.902V15.5102H130.611C131.673 15.5102 132.434 15.2439 132.893 14.7112C133.353 14.1785 133.581 13.2482 133.581 11.9203V10.4572ZM171.353 30.4878L159.337 18.525L150.161 26.7627V30.4839H144.132V0H150.161V19.2314L171.353 0H179.996L163.458 14.8L179.907 30.4878H171.353Z" fill="white"/>
</svg>
